<svg width="197" height="43" fill="none" xmlns="http://www.w3.org/2000/svg" class="w-[134px] lg:w-[197px] text-primary dark:text-light"><path d="M37.345.535c-2.087.296-3.676 1.152-4.486 2.43-.56.887-.778 1.884-.778 3.55 0 4.127 2.211 5.918 7.32 5.918 3.815 0 5.917-.95 6.883-3.13.623-1.418.623-4.283-.016-5.716-.888-2.009-2.834-2.99-6.245-3.13-.903-.031-2.102 0-2.678.078zm2.476 1.121c.078.11.373.732.654 1.386l.514 1.2 1.339.108c1.433.125 1.9.265 1.9.608 0 .124-.53.7-1.168 1.277-.654.576-1.137 1.074-1.09 1.121.047.047.187-.047.311-.218.218-.265.218-.25.031.25-.186.466-.17.669 0 1.37.28 1.09.218 1.65-.186 1.713-.172.015-.826-.28-1.449-.67-.638-.39-1.199-.7-1.261-.7-.063 0-.623.31-1.246.7-1.775 1.09-2.071.95-1.682-.81.156-.67.187-1.152.093-1.324-.202-.389-.17-.498.094-.28.187.156.233.156.218-.015 0-.125-.467-.608-1.012-1.075-1.745-1.464-1.667-1.76.56-1.931l1.433-.125.218-.53c.794-1.9.997-2.242 1.277-2.242.171 0 .374.094.452.187zM137.2 13.087c-1.588.202-4.096.763-5.357 1.215-1.993.716-3.551 1.666-4.843 2.959-1.324 1.339-2.118 2.663-2.71 4.531-.701 2.18-.841 3.442-.748 6.572.063 2.32.141 3.021.483 4.314.639 2.46 1.48 3.971 3.053 5.56 2.009 2.04 4.017 3.005 7.911 3.83 1.869.39 2.211.421 6.338.421 4.874.016 6.572-.171 9.266-1.028 4.999-1.588 7.756-4.563 8.83-9.53.389-1.791.389-6.354 0-8.176-1.074-5.015-3.722-7.99-8.487-9.562-2.788-.92-4.08-1.09-8.908-1.122-2.352-.03-4.532-.015-4.828.016zm7.942 9.25c1.885.514 3.224 1.698 3.676 3.209.389 1.339.342 3.472-.094 4.64-.903 2.383-3.005 3.38-7.195 3.38-3.161 0-4.936-.577-6.166-1.963-.904-1.027-1.184-1.977-1.184-3.97.016-1.792.234-2.617.95-3.551.514-.686 1.62-1.386 2.694-1.698 1.62-.483 5.653-.514 7.319-.047zM0 17.821v4.516l8.643.032 8.659.046-8.659 5.358L0 33.13v9.141h32.548V33.24h-8.674c-5.607 0-8.628-.047-8.519-.156.078-.078 1.931-1.246 4.127-2.6 2.18-1.356 6.011-3.723 8.519-5.265l4.531-2.803.016-4.563v-4.547H0v4.516zM34.261 27.788v14.483h10.746V13.305H34.26v14.483zM46.72 27.788v14.483H57.465V36.712l2.071-1.682a98.52 98.52 0 012.259-1.838c.155-.125 1.339.965 4.827 4.454l4.626 4.625 7.366-.031 7.366-.047-8.067-7.413c-4.438-4.08-8.16-7.537-8.27-7.662-.17-.202.935-1.168 7.943-6.898 4.485-3.66 8.207-6.713 8.285-6.79.093-.063-3.27-.125-7.475-.125l-7.616.015-6.618 5.654-6.619 5.653-.047-5.669-.03-5.653H46.72v14.483zM102.005 17.821v4.516h9.53l-.077 3.458c-.078 3.908-.218 4.594-1.122 5.777-.7.904-1.573 1.433-2.959 1.744-1.214.28-3.628.328-4.874.094-2.585-.514-4.111-2.118-4.345-4.61l-.093-1.012h-10.73l.109 1.355c.14 1.729.607 4.173 1.028 5.233 1.697 4.329 5.185 6.867 10.807 7.833.779.14 2.804.28 4.517.327 4.609.124 7.895-.358 10.87-1.604 2.445-1.028 4.75-3.162 5.84-5.389 1.479-3.036 1.588-4.049 1.588-14.109v-8.129h-20.089v4.516zM161.183 27.788v14.499l14.296-.047c13.237-.062 14.358-.078 15.293-.343 3.332-.934 5.341-2.974 5.995-6.089.452-2.18.265-3.753-.732-5.84-.529-1.105-.872-1.557-2.008-2.678-1.168-1.137-1.34-1.37-1.153-1.526.389-.328 1.308-1.947 1.62-2.835.405-1.199.498-2.227.327-3.566-.203-1.635-.67-2.788-1.511-3.722-.888-.997-1.697-1.464-3.255-1.9-1.23-.343-1.308-.358-15.043-.405l-13.829-.047v14.5zm22.596-7.023c.981.996.359 2.522-1.121 2.74-.374.047-2.959.078-5.746.047l-5.062-.047-.046-1.604-.047-1.588h11.571l.451.452zm1.324 10.62c.841.218 1.152.623 1.152 1.511 0 .934-.467 1.37-1.572 1.51-.468.047-3.536.079-6.837.047l-5.996-.046-.046-1.386c-.032-.763-.016-1.48.031-1.604.109-.265 12.194-.296 13.268-.032z" fill="currentColor"/></svg>